<?xml version="1.0" encoding="UTF-8"?><svg xmlns="http://www.w3.org/2000/svg" xmlns:xlink="http://www.w3.org/1999/xlink" fill-opacity="1" color-rendering="auto" color-interpolation="auto" text-rendering="auto" stroke="black" stroke-linecap="square" width="934" stroke-miterlimit="10" shape-rendering="auto" stroke-opacity="1" fill="black" stroke-dasharray="none" font-weight="normal" stroke-width="1" height="714" font-family="'Dialog'" font-style="normal" stroke-linejoin="miter" font-size="12px" stroke-dashoffset="0" image-rendering="auto">
  <!--Generated by ySVG 2.6-->
  <defs id="genericDefs"/>
  <g>
    <defs id="defs1">
      <clipPath clipPathUnits="userSpaceOnUse" id="clipPath1">
        <path d="M0 0 L934 0 L934 714 L0 714 L0 0 Z"/>
      </clipPath>
      <clipPath clipPathUnits="userSpaceOnUse" id="clipPath2">
        <path d="M-736 -365 L198 -365 L198 349 L-736 349 L-736 -365 Z"/>
      </clipPath>
    </defs>
    <g fill="white" text-rendering="geometricPrecision" shape-rendering="geometricPrecision" transform="translate(736,365)" stroke="white">
      <rect x="-736" width="934" height="714" y="-365" clip-path="url(#clipPath2)" stroke="none"/>
    </g>
    <g fill="lime" text-rendering="geometricPrecision" shape-rendering="geometricPrecision" transform="matrix(1,0,0,1,736,365)" stroke="lime">
      <path d="M-221.76 -348.3416 L-56.7 -348.3416 L-75.04 -318.3416 L-240.1 -318.3416 Z" fill-rule="evenodd" clip-path="url(#clipPath2)" stroke="none"/>
    </g>
    <g text-rendering="geometricPrecision" stroke-miterlimit="1.45" shape-rendering="geometricPrecision" transform="matrix(1,0,0,1,736,365)" stroke-linecap="butt">
      <path fill="none" d="M-221.76 -348.3416 L-56.7 -348.3416 L-75.04 -318.3416 L-240.1 -318.3416 Z" fill-rule="evenodd" clip-path="url(#clipPath2)"/>
      <text x="-214.3912" xml:space="preserve" y="-329.1873" clip-path="url(#clipPath2)" font-family="sans-serif" stroke="none">../Reporting_Dates.xls</text>
    </g>
    <g fill="rgb(255,204,0)" text-rendering="geometricPrecision" shape-rendering="geometricPrecision" transform="matrix(1,0,0,1,736,365)" stroke="rgb(255,204,0)">
      <rect x="-195.4651" width="94.1301" height="30" y="-288.3416" clip-path="url(#clipPath2)" stroke="none"/>
    </g>
    <g text-rendering="geometricPrecision" stroke-miterlimit="1.45" shape-rendering="geometricPrecision" transform="matrix(1,0,0,1,736,365)" stroke-linecap="butt">
      <rect fill="none" x="-195.4651" width="94.1301" height="30" y="-288.3416" clip-path="url(#clipPath2)"/>
      <text x="-192.6646" xml:space="preserve" y="-269.1873" clip-path="url(#clipPath2)" font-family="sans-serif" stroke="none">reporting_date</text>
    </g>
    <g fill="rgb(255,204,0)" text-rendering="geometricPrecision" shape-rendering="geometricPrecision" transform="matrix(1,0,0,1,736,365)" stroke="rgb(255,204,0)">
      <rect x="-51.9" width="84.4001" height="30" y="-214.0832" clip-path="url(#clipPath2)" stroke="none"/>
    </g>
    <g text-rendering="geometricPrecision" stroke-miterlimit="1.45" shape-rendering="geometricPrecision" transform="matrix(1,0,0,1,736,365)" stroke-linecap="butt">
      <rect fill="none" x="-51.9" width="84.4001" height="30" y="-214.0832" clip-path="url(#clipPath2)"/>
      <text x="-46.0251" xml:space="preserve" y="-194.9289" clip-path="url(#clipPath2)" font-family="sans-serif" stroke="none">data_import</text>
    </g>
    <g fill="rgb(255,204,0)" text-rendering="geometricPrecision" shape-rendering="geometricPrecision" transform="matrix(1,0,0,1,736,365)" stroke="rgb(255,204,0)">
      <rect x="91.8999" width="84.4001" height="30" y="-214.0832" clip-path="url(#clipPath2)" stroke="none"/>
    </g>
    <g text-rendering="geometricPrecision" stroke-miterlimit="1.45" shape-rendering="geometricPrecision" transform="matrix(1,0,0,1,736,365)" stroke-linecap="butt">
      <rect fill="none" x="91.8999" width="84.4001" height="30" y="-214.0832" clip-path="url(#clipPath2)"/>
      <text x="98.0443" xml:space="preserve" y="-194.9289" clip-path="url(#clipPath2)" font-family="sans-serif" stroke="none">data_export</text>
    </g>
    <g fill="rgb(255,204,0)" text-rendering="geometricPrecision" shape-rendering="geometricPrecision" transform="matrix(1,0,0,1,736,365)" stroke="rgb(255,204,0)">
      <rect x="-51.9" width="228.2" height="30" y="-290.0832" clip-path="url(#clipPath2)" stroke="none"/>
    </g>
    <g text-rendering="geometricPrecision" stroke-miterlimit="1.45" shape-rendering="geometricPrecision" transform="matrix(1,0,0,1,736,365)" stroke-linecap="butt">
      <rect fill="none" x="-51.9" width="228.2" height="30" y="-290.0832" clip-path="url(#clipPath2)"/>
      <text x="15.6385" xml:space="preserve" y="-270.9289" clip-path="url(#clipPath2)" font-family="sans-serif" stroke="none">raw_trade_data</text>
    </g>
    <g fill="lime" text-rendering="geometricPrecision" shape-rendering="geometricPrecision" transform="matrix(1,0,0,1,736,365)" stroke="lime">
      <path d="M-29.08 -348.3416 L176.3 -348.3416 L153.48 -318.3416 L-51.9 -318.3416 Z" fill-rule="evenodd" clip-path="url(#clipPath2)" stroke="none"/>
    </g>
    <g text-rendering="geometricPrecision" stroke-miterlimit="1.45" shape-rendering="geometricPrecision" transform="matrix(1,0,0,1,736,365)" stroke-linecap="butt">
      <path fill="none" d="M-29.08 -348.3416 L176.3 -348.3416 L153.48 -318.3416 L-51.9 -318.3416 Z" fill-rule="evenodd" clip-path="url(#clipPath2)"/>
      <text x="-28.3186" xml:space="preserve" y="-336.1717" clip-path="url(#clipPath2)" font-family="sans-serif" stroke="none">../Trade_DetailedTradeMatrix_</text>
      <text x="-23.051" xml:space="preserve" y="-322.2029" clip-path="url(#clipPath2)" font-family="sans-serif" stroke="none">E_All_Data_(Normalized).csv</text>
    </g>
    <g fill="rgb(255,204,0)" text-rendering="geometricPrecision" shape-rendering="geometricPrecision" transform="matrix(1,0,0,1,736,365)" stroke="rgb(255,204,0)">
      <rect x="-51.9" width="228.2" height="30" y="-154.0832" clip-path="url(#clipPath2)" stroke="none"/>
    </g>
    <g text-rendering="geometricPrecision" stroke-miterlimit="1.45" shape-rendering="geometricPrecision" transform="matrix(1,0,0,1,736,365)" stroke-linecap="butt">
      <rect fill="none" x="-51.9" width="228.2" height="30" y="-154.0832" clip-path="url(#clipPath2)"/>
      <text x="29.6893" xml:space="preserve" y="-134.9289" clip-path="url(#clipPath2)" font-family="sans-serif" stroke="none">trade_data</text>
    </g>
    <g fill="lime" text-rendering="geometricPrecision" shape-rendering="geometricPrecision" transform="matrix(1,0,0,1,736,365)" stroke="lime">
      <path d="M-456.76 -348.3416 L-244.9 -348.3416 L-268.44 -318.3416 L-480.3 -318.3416 Z" fill-rule="evenodd" clip-path="url(#clipPath2)" stroke="none"/>
    </g>
    <g text-rendering="geometricPrecision" stroke-miterlimit="1.45" shape-rendering="geometricPrecision" transform="matrix(1,0,0,1,736,365)" stroke-linecap="butt">
      <path fill="none" d="M-456.76 -348.3416 L-244.9 -348.3416 L-268.44 -318.3416 L-480.3 -318.3416 Z" fill-rule="evenodd" clip-path="url(#clipPath2)"/>
      <text x="-460.141" xml:space="preserve" y="-329.1873" clip-path="url(#clipPath2)" font-family="sans-serif" stroke="none">../content_factors_per_100g.xlsx</text>
    </g>
    <g fill="rgb(255,204,0)" text-rendering="geometricPrecision" shape-rendering="geometricPrecision" transform="matrix(1,0,0,1,736,365)" stroke="rgb(255,204,0)">
      <rect x="-429.1" width="133" height="30" y="-288.3416" clip-path="url(#clipPath2)" stroke="none"/>
    </g>
    <g text-rendering="geometricPrecision" stroke-miterlimit="1.45" shape-rendering="geometricPrecision" transform="matrix(1,0,0,1,736,365)" stroke-linecap="butt">
      <rect fill="none" x="-429.1" width="133" height="30" y="-288.3416" clip-path="url(#clipPath2)"/>
      <text x="-409.2758" xml:space="preserve" y="-269.1873" clip-path="url(#clipPath2)" font-family="sans-serif" stroke="none">content_factors</text>
    </g>
    <g fill="rgb(255,204,0)" text-rendering="geometricPrecision" shape-rendering="geometricPrecision" transform="matrix(1,0,0,1,736,365)" stroke="rgb(255,204,0)">
      <rect x="-669.3" width="133" height="30" y="-288.3416" clip-path="url(#clipPath2)" stroke="none"/>
    </g>
    <g text-rendering="geometricPrecision" stroke-miterlimit="1.45" shape-rendering="geometricPrecision" transform="matrix(1,0,0,1,736,365)" stroke-linecap="butt">
      <rect fill="none" x="-669.3" width="133" height="30" y="-288.3416" clip-path="url(#clipPath2)"/>
      <text x="-632.6857" xml:space="preserve" y="-269.1873" clip-path="url(#clipPath2)" font-family="sans-serif" stroke="none">item_map</text>
    </g>
    <g fill="lime" text-rendering="geometricPrecision" shape-rendering="geometricPrecision" transform="matrix(1,0,0,1,736,365)" stroke="lime">
      <path d="M-696.96 -348.3416 L-485.1 -348.3416 L-508.64 -318.3416 L-720.5 -318.3416 Z" fill-rule="evenodd" clip-path="url(#clipPath2)" stroke="none"/>
    </g>
    <g text-rendering="geometricPrecision" stroke-miterlimit="1.45" shape-rendering="geometricPrecision" transform="matrix(1,0,0,1,736,365)" stroke-linecap="butt">
      <path fill="none" d="M-696.96 -348.3416 L-485.1 -348.3416 L-508.64 -318.3416 L-720.5 -318.3416 Z" fill-rule="evenodd" clip-path="url(#clipPath2)"/>
      <text x="-693.1896" xml:space="preserve" y="-329.1873" clip-path="url(#clipPath2)" font-family="sans-serif" stroke="none">../primary_item_map_feed.csv</text>
    </g>
    <g fill="rgb(255,204,0)" text-rendering="geometricPrecision" shape-rendering="geometricPrecision" transform="matrix(1,0,0,1,736,365)" stroke="rgb(255,204,0)">
      <rect x="-600.4" width="235.4" height="30" y="-154.0832" clip-path="url(#clipPath2)" stroke="none"/>
    </g>
    <g text-rendering="geometricPrecision" stroke-miterlimit="1.45" shape-rendering="geometricPrecision" transform="matrix(1,0,0,1,736,365)" stroke-linecap="butt">
      <rect fill="none" x="-600.4" width="235.4" height="30" y="-154.0832" clip-path="url(#clipPath2)"/>
      <text x="-539.1522" xml:space="preserve" y="-134.9289" clip-path="url(#clipPath2)" font-family="sans-serif" stroke="none">conversion_factors</text>
    </g>
    <g fill="rgb(255,204,0)" text-rendering="geometricPrecision" shape-rendering="geometricPrecision" transform="matrix(1,0,0,1,736,365)" stroke="rgb(255,204,0)">
      <rect x="-51.9" width="228.2" height="30" y="27.7008" clip-path="url(#clipPath2)" stroke="none"/>
    </g>
    <g text-rendering="geometricPrecision" stroke-miterlimit="1.45" shape-rendering="geometricPrecision" transform="matrix(1,0,0,1,736,365)" stroke-linecap="butt">
      <rect fill="none" x="-51.9" width="228.2" height="30" y="27.7008" clip-path="url(#clipPath2)"/>
      <text x="22.2039" xml:space="preserve" y="46.8551" clip-path="url(#clipPath2)" font-family="sans-serif" stroke="none">primary_data</text>
    </g>
    <g fill="lime" text-rendering="geometricPrecision" shape-rendering="geometricPrecision" transform="matrix(1,0,0,1,736,365)" stroke="lime">
      <path d="M-507.26 -43.747 L-261.2 -43.747 L-288.54 -6.747 L-534.6 -6.747 Z" fill-rule="evenodd" clip-path="url(#clipPath2)" stroke="none"/>
    </g>
    <g text-rendering="geometricPrecision" stroke-miterlimit="1.45" shape-rendering="geometricPrecision" transform="matrix(1,0,0,1,736,365)" stroke-linecap="butt">
      <path fill="none" d="M-507.26 -43.747 L-261.2 -43.747 L-288.54 -6.747 L-534.6 -6.747 Z" fill-rule="evenodd" clip-path="url(#clipPath2)"/>
      <text x="-459.1568" xml:space="preserve" y="-28.0771" clip-path="url(#clipPath2)" font-family="sans-serif" stroke="none">../Production_Crops_</text>
      <text x="-483.151" xml:space="preserve" y="-14.1083" clip-path="url(#clipPath2)" font-family="sans-serif" stroke="none">E_All_Data_(Normalized).csv</text>
    </g>
    <g fill="lime" text-rendering="geometricPrecision" shape-rendering="geometricPrecision" transform="matrix(1,0,0,1,736,365)" stroke="lime">
      <path d="M-203.86 -43.747 L42.2 -43.747 L14.86 -6.747 L-231.2 -6.747 Z" fill-rule="evenodd" clip-path="url(#clipPath2)" stroke="none"/>
    </g>
    <g text-rendering="geometricPrecision" stroke-miterlimit="1.45" shape-rendering="geometricPrecision" transform="matrix(1,0,0,1,736,365)" stroke-linecap="butt">
      <path fill="none" d="M-203.86 -43.747 L42.2 -43.747 L14.86 -6.747 L-231.2 -6.747 Z" fill-rule="evenodd" clip-path="url(#clipPath2)"/>
      <text x="-189.9609" xml:space="preserve" y="-28.0771" clip-path="url(#clipPath2)" font-family="sans-serif" stroke="none">../Production_LivestockPrimary_</text>
      <text x="-179.751" xml:space="preserve" y="-14.1083" clip-path="url(#clipPath2)" font-family="sans-serif" stroke="none">E_All_Data_(Normalized).csv</text>
    </g>
    <g fill="lime" text-rendering="geometricPrecision" shape-rendering="geometricPrecision" transform="matrix(1,0,0,1,736,365)" stroke="lime">
      <path d="M-360.8599 -94.0832 L-114.7999 -94.0832 L-142.1399 -57.0832 L-388.1999 -57.0832 Z" fill-rule="evenodd" clip-path="url(#clipPath2)" stroke="none"/>
    </g>
    <g text-rendering="geometricPrecision" stroke-miterlimit="1.45" shape-rendering="geometricPrecision" transform="matrix(1,0,0,1,736,365)" stroke-linecap="butt">
      <path fill="none" d="M-360.8599 -94.0832 L-114.7999 -94.0832 L-142.1399 -57.0832 L-388.1999 -57.0832 Z" fill-rule="evenodd" clip-path="url(#clipPath2)"/>
      <text x="-363.3056" xml:space="preserve" y="-78.4133" clip-path="url(#clipPath2)" font-family="sans-serif" stroke="none">./CommodityBalances_LivestockFish_</text>
      <text x="-336.7509" xml:space="preserve" y="-64.4445" clip-path="url(#clipPath2)" font-family="sans-serif" stroke="none">E_All_Data_(Normalized).csv</text>
    </g>
    <g fill="rgb(255,204,0)" text-rendering="geometricPrecision" shape-rendering="geometricPrecision" transform="matrix(1,0,0,1,736,365)" stroke="rgb(255,204,0)">
      <rect x="-421.2497" width="339.4997" height="30" y="27.7008" clip-path="url(#clipPath2)" stroke="none"/>
    </g>
    <g text-rendering="geometricPrecision" stroke-miterlimit="1.45" shape-rendering="geometricPrecision" transform="matrix(1,0,0,1,736,365)" stroke-linecap="butt">
      <rect fill="none" x="-421.2497" width="339.4997" height="30" y="27.7008" clip-path="url(#clipPath2)"/>
      <text x="-293.8603" xml:space="preserve" y="46.8551" clip-path="url(#clipPath2)" font-family="sans-serif" stroke="none">production_all</text>
    </g>
    <g fill="rgb(255,204,0)" text-rendering="geometricPrecision" shape-rendering="geometricPrecision" transform="matrix(1,0,0,1,736,365)" stroke="rgb(255,204,0)">
      <rect x="-319.0575" width="135.1151" height="30" y="134.9016" clip-path="url(#clipPath2)" stroke="none"/>
    </g>
    <g text-rendering="geometricPrecision" stroke-miterlimit="1.45" shape-rendering="geometricPrecision" transform="matrix(1,0,0,1,736,365)" stroke-linecap="butt">
      <rect fill="none" x="-319.0575" width="135.1151" height="30" y="134.9016" clip-path="url(#clipPath2)"/>
      <text x="-291.2704" xml:space="preserve" y="154.0559" clip-path="url(#clipPath2)" font-family="sans-serif" stroke="none">sugar_shares</text>
    </g>
    <g fill="rgb(255,204,0)" text-rendering="geometricPrecision" shape-rendering="geometricPrecision" transform="matrix(1,0,0,1,736,365)" stroke="rgb(255,204,0)">
      <rect x="-51.9" width="228.2" height="30" y="135.9466" clip-path="url(#clipPath2)" stroke="none"/>
    </g>
    <g text-rendering="geometricPrecision" stroke-miterlimit="1.45" shape-rendering="geometricPrecision" transform="matrix(1,0,0,1,736,365)" stroke-linecap="butt">
      <rect fill="none" x="-51.9" width="228.2" height="30" y="135.9466" clip-path="url(#clipPath2)"/>
      <text x="8.6658" xml:space="preserve" y="155.1009" clip-path="url(#clipPath2)" font-family="sans-serif" stroke="none">transformed_data</text>
    </g>
    <g fill="rgb(51,102,255)" text-rendering="geometricPrecision" shape-rendering="geometricPrecision" transform="matrix(1,0,0,1,736,365)" stroke="rgb(51,102,255)">
      <rect x="-51.9" y="81.3012" clip-path="url(#clipPath2)" width="228.2" rx="4" ry="4" height="30" stroke="none"/>
    </g>
    <g text-rendering="geometricPrecision" stroke-miterlimit="1.45" shape-rendering="geometricPrecision" transform="matrix(1,0,0,1,736,365)" stroke-linecap="butt">
      <rect x="-51.9" y="81.3012" clip-path="url(#clipPath2)" fill="none" width="228.2" rx="4" ry="4" height="30"/>
      <text x="26.868" y="100.4555" clip-path="url(#clipPath2)" fill="white" font-family="sans-serif" stroke="none" xml:space="preserve">mrio_model</text>
    </g>
    <g fill="lime" text-rendering="geometricPrecision" shape-rendering="geometricPrecision" transform="matrix(1,0,0,1,736,365)" stroke="lime">
      <path d="M-693.16 131.4016 L-447.1 131.4016 L-474.44 168.4016 L-720.5 168.4016 Z" fill-rule="evenodd" clip-path="url(#clipPath2)" stroke="none"/>
    </g>
    <g text-rendering="geometricPrecision" stroke-miterlimit="1.45" shape-rendering="geometricPrecision" transform="matrix(1,0,0,1,736,365)" stroke-linecap="butt">
      <path fill="none" d="M-693.16 131.4016 L-447.1 131.4016 L-474.44 168.4016 L-720.5 168.4016 Z" fill-rule="evenodd" clip-path="url(#clipPath2)"/>
      <text x="-674.5529" xml:space="preserve" y="147.0715" clip-path="url(#clipPath2)" font-family="sans-serif" stroke="none">../CommodityBalances_Crops_</text>
      <text x="-669.051" xml:space="preserve" y="161.0403" clip-path="url(#clipPath2)" font-family="sans-serif" stroke="none">E_All_Data_(Normalized).csv</text>
    </g>
    <g fill="rgb(255,204,0)" text-rendering="geometricPrecision" shape-rendering="geometricPrecision" transform="matrix(1,0,0,1,736,365)" stroke="rgb(255,204,0)">
      <rect x="-720.5" width="273.4" height="30" y="191.4016" clip-path="url(#clipPath2)" stroke="none"/>
    </g>
    <g text-rendering="geometricPrecision" stroke-miterlimit="1.45" shape-rendering="geometricPrecision" transform="matrix(1,0,0,1,736,365)" stroke-linecap="butt">
      <rect fill="none" x="-720.5" width="273.4" height="30" y="191.4016" clip-path="url(#clipPath2)"/>
      <text x="-636.1476" xml:space="preserve" y="210.5559" clip-path="url(#clipPath2)" font-family="sans-serif" stroke="none">sugar_processing</text>
    </g>
    <g fill="rgb(255,204,0)" text-rendering="geometricPrecision" shape-rendering="geometricPrecision" transform="matrix(1,0,0,1,736,365)" stroke="rgb(255,204,0)">
      <rect x="-319.0575" width="135.1151" height="30" y="191.4016" clip-path="url(#clipPath2)" stroke="none"/>
    </g>
    <g text-rendering="geometricPrecision" stroke-miterlimit="1.45" shape-rendering="geometricPrecision" transform="matrix(1,0,0,1,736,365)" stroke-linecap="butt">
      <rect fill="none" x="-319.0575" width="135.1151" height="30" y="191.4016" clip-path="url(#clipPath2)"/>
      <text x="-307.5155" xml:space="preserve" y="210.5559" clip-path="url(#clipPath2)" font-family="sans-serif" stroke="none">sugar_crop_shares</text>
    </g>
    <g fill="rgb(255,204,0)" text-rendering="geometricPrecision" shape-rendering="geometricPrecision" transform="matrix(1,0,0,1,736,365)" stroke="rgb(255,204,0)">
      <rect x="-51.9" width="228.2" height="30" y="300.4832" clip-path="url(#clipPath2)" stroke="none"/>
    </g>
    <g text-rendering="geometricPrecision" stroke-miterlimit="1.45" shape-rendering="geometricPrecision" transform="matrix(1,0,0,1,736,365)" stroke-linecap="butt">
      <rect fill="none" x="-51.9" width="228.2" height="30" y="300.4832" clip-path="url(#clipPath2)"/>
      <text x="25.8953" xml:space="preserve" y="319.6375" clip-path="url(#clipPath2)" font-family="sans-serif" stroke="none">output_data</text>
    </g>
    <g fill="rgb(153,0,0)" text-rendering="geometricPrecision" shape-rendering="geometricPrecision" transform="matrix(1,0,0,1,736,365)" stroke="rgb(153,0,0)">
      <path d="M-685.08 296.9832 L-366.3 296.9832 L-401.72 333.9832 L-720.5 333.9832 Z" fill-rule="evenodd" clip-path="url(#clipPath2)" stroke="none"/>
    </g>
    <g text-rendering="geometricPrecision" stroke-miterlimit="1.45" shape-rendering="geometricPrecision" transform="matrix(1,0,0,1,736,365)" stroke-linecap="butt">
      <path fill="none" d="M-685.08 296.9832 L-366.3 296.9832 L-401.72 333.9832 L-720.5 333.9832 Z" fill-rule="evenodd" clip-path="url(#clipPath2)"/>
      <text x="-696.8629" y="319.6375" clip-path="url(#clipPath2)" fill="white" font-family="sans-serif" stroke="none" xml:space="preserve">../results/TradeMatrix_import_dry_matter_2013.csv</text>
    </g>
    <g fill="rgb(51,102,255)" text-rendering="geometricPrecision" shape-rendering="geometricPrecision" transform="matrix(1,0,0,1,736,365)" stroke="rgb(51,102,255)">
      <rect x="-600.4" y="-214.0832" clip-path="url(#clipPath2)" width="235.4" rx="4" ry="4" height="30" stroke="none"/>
    </g>
    <g text-rendering="geometricPrecision" stroke-miterlimit="1.45" shape-rendering="geometricPrecision" transform="matrix(1,0,0,1,736,365)" stroke-linecap="butt">
      <rect x="-600.4" y="-214.0832" clip-path="url(#clipPath2)" fill="none" width="235.4" rx="4" ry="4" height="30"/>
      <text x="-569.284" y="-194.9289" clip-path="url(#clipPath2)" fill="white" font-family="sans-serif" stroke="none" xml:space="preserve">calculate_conversion_factors</text>
    </g>
    <g fill="rgb(255,204,0)" text-rendering="geometricPrecision" shape-rendering="geometricPrecision" transform="matrix(1,0,0,1,736,365)" stroke="rgb(255,204,0)">
      <rect x="-183.9423" width="135.1151" height="30" y="244.1924" clip-path="url(#clipPath2)" stroke="none"/>
    </g>
    <g text-rendering="geometricPrecision" stroke-miterlimit="1.45" shape-rendering="geometricPrecision" transform="matrix(1,0,0,1,736,365)" stroke-linecap="butt">
      <rect fill="none" x="-183.9423" width="135.1151" height="30" y="244.1924" clip-path="url(#clipPath2)"/>
      <text x="-149.7803" xml:space="preserve" y="263.3467" clip-path="url(#clipPath2)" font-family="sans-serif" stroke="none">sugar_data</text>
    </g>
    <g fill="rgb(255,204,0)" text-rendering="geometricPrecision" shape-rendering="geometricPrecision" transform="matrix(1,0,0,1,736,365)" stroke="rgb(255,204,0)">
      <rect x="-319.0575" width="135.1151" height="30" y="81.3012" clip-path="url(#clipPath2)" stroke="none"/>
    </g>
    <g text-rendering="geometricPrecision" stroke-miterlimit="1.45" shape-rendering="geometricPrecision" transform="matrix(1,0,0,1,736,365)" stroke-linecap="butt">
      <rect fill="none" x="-319.0575" width="135.1151" height="30" y="81.3012" clip-path="url(#clipPath2)"/>
      <text x="-303.7304" xml:space="preserve" y="100.4555" clip-path="url(#clipPath2)" font-family="sans-serif" stroke="none">sugar_production</text>
    </g>
    <g font-size="8px" stroke-linecap="butt" transform="matrix(1,0,0,1,736,365)" text-rendering="geometricPrecision" font-family="sans-serif" shape-rendering="geometricPrecision" stroke-miterlimit="1.45">
      <text x="49.198" xml:space="preserve" y="254.8593" clip-path="url(#clipPath2)" stroke="none">merge</text>
    </g>
    <g font-size="8px" stroke-linecap="butt" transform="matrix(1,0,0,1,736,365)" text-rendering="geometricPrecision" font-family="sans-serif" shape-rendering="geometricPrecision" stroke-miterlimit="1.45">
      <text x="100.3555" xml:space="preserve" y="-250.6313" clip-path="url(#clipPath2)" stroke="none">5910</text>
    </g>
    <g font-size="8px" stroke-linecap="butt" transform="matrix(1,0,0,1,736,365)" text-rendering="geometricPrecision" font-family="sans-serif" shape-rendering="geometricPrecision" stroke-miterlimit="1.45">
      <text x="13.2269" xml:space="preserve" y="-250.6313" clip-path="url(#clipPath2)" stroke="none">5610</text>
    </g>
    <g font-size="8px" stroke-linecap="butt" transform="matrix(1,0,0,1,736,365)" text-rendering="geometricPrecision" font-family="sans-serif" shape-rendering="geometricPrecision" stroke-miterlimit="1.45">
      <text x="-133.132" xml:space="preserve" y="-228.0374" clip-path="url(#clipPath2)" stroke="none">crop bad dates</text>
    </g>
    <g font-size="8px" stroke-linecap="butt" transform="matrix(1,0,0,1,736,365)" text-rendering="geometricPrecision" font-family="sans-serif" shape-rendering="geometricPrecision" stroke-miterlimit="1.45">
      <text x="13.5556" xml:space="preserve" y="-173.3847" clip-path="url(#clipPath2)" stroke="none">merge on prefer_import</text>
    </g>
    <g font-size="8px" stroke-linecap="butt" transform="matrix(1,0,0,1,736,365)" text-rendering="geometricPrecision" font-family="sans-serif" shape-rendering="geometricPrecision" stroke-miterlimit="1.45">
      <text x="-576.6789" xml:space="preserve" y="-237.7621" clip-path="url(#clipPath2)" stroke="none">merge on both primary and secondary map</text>
    </g>
    <g font-size="8px" stroke-linecap="butt" transform="matrix(1,0,0,1,736,365)" text-rendering="geometricPrecision" font-family="sans-serif" shape-rendering="geometricPrecision" stroke-miterlimit="1.45">
      <text x="-94.536" xml:space="preserve" y="-110.857" clip-path="url(#clipPath2)" stroke="none">calculate primary_value of commodity</text>
    </g>
    <g font-size="8px" stroke-linecap="butt" transform="matrix(1,0,0,1,736,365)" text-rendering="geometricPrecision" font-family="sans-serif" shape-rendering="geometricPrecision" stroke-miterlimit="1.45">
      <text x="-212.1111" xml:space="preserve" y="66.8189" clip-path="url(#clipPath2)" stroke="none">create 2545, the</text>
      <text x="-214.6131" xml:space="preserve" y="76.1314" clip-path="url(#clipPath2)" stroke="none">sum of 156 &amp; 157</text>
    </g>
    <g font-size="8px" stroke-linecap="butt" transform="matrix(1,0,0,1,736,365)" text-rendering="geometricPrecision" font-family="sans-serif" shape-rendering="geometricPrecision" stroke-miterlimit="1.45">
      <text x="-411.414" xml:space="preserve" y="71.6035" clip-path="url(#clipPath2)" stroke="none">isolate sugar (code 156 &amp; 157)</text>
    </g>
    <g font-size="8px" stroke-linecap="butt" transform="matrix(1,0,0,1,736,365)" text-rendering="geometricPrecision" font-family="sans-serif" shape-rendering="geometricPrecision" stroke-miterlimit="1.45">
      <text x="-249.6439" xml:space="preserve" y="122.8308" clip-path="url(#clipPath2)" stroke="none">calculate production share of </text>
      <text x="-240.9056" xml:space="preserve" y="132.1434" clip-path="url(#clipPath2)" stroke="none">sugar: 156/sum(156,157)</text>
    </g>
    <g font-size="8px" stroke-linecap="butt" transform="matrix(1,0,0,1,736,365)" text-rendering="geometricPrecision" font-family="sans-serif" shape-rendering="geometricPrecision" stroke-miterlimit="1.45">
      <text x="-546.9583" xml:space="preserve" y="112.5233" clip-path="url(#clipPath2)" stroke="none">calculate primary_value of sugar_crop_shares</text>
    </g>
    <g fill="rgb(255,204,0)" text-rendering="geometricPrecision" shape-rendering="geometricPrecision" transform="matrix(1,0,0,1,736,365)" stroke="rgb(255,204,0)">
      <rect x="-48.8272" width="146.28" height="30" y="189.3594" clip-path="url(#clipPath2)" stroke="none"/>
    </g>
    <g text-rendering="geometricPrecision" stroke-miterlimit="1.45" shape-rendering="geometricPrecision" transform="matrix(1,0,0,1,736,365)" stroke-linecap="butt">
      <rect fill="none" x="-48.8272" width="146.28" height="30" y="189.3594" clip-path="url(#clipPath2)"/>
      <text x="-28.0788" xml:space="preserve" y="208.5137" clip-path="url(#clipPath2)" font-family="sans-serif" stroke="none">sugar_trade_data</text>
      <text x="-444.14" font-size="8px" y="218.8462" clip-path="url(#clipPath2)" font-family="sans-serif" stroke="none" xml:space="preserve">calculate processing share of</text>
      <text x="-429.4193" font-size="8px" y="228.1587" clip-path="url(#clipPath2)" font-family="sans-serif" stroke="none" xml:space="preserve">sugar but fall back to </text>
      <text x="-436.39" font-size="8px" y="237.4712" clip-path="url(#clipPath2)" font-family="sans-serif" stroke="none" xml:space="preserve">production if not possible</text>
      <text x="-177.3556" font-size="8px" y="191.2701" clip-path="url(#clipPath2)" font-family="sans-serif" stroke="none" xml:space="preserve">merge shares</text>
      <text x="-180.5255" font-size="8px" y="200.5826" clip-path="url(#clipPath2)" font-family="sans-serif" stroke="none" xml:space="preserve">with trade data</text>
      <text x="-114.9128" font-size="8px" y="185.5358" clip-path="url(#clipPath2)" font-family="sans-serif" stroke="none" xml:space="preserve">then add domestic</text>
      <text x="-99.0007" font-size="8px" y="194.8483" clip-path="url(#clipPath2)" font-family="sans-serif" stroke="none" xml:space="preserve">production</text>
      <text x="37.5145" font-size="8px" y="180.8164" clip-path="url(#clipPath2)" font-family="sans-serif" stroke="none" xml:space="preserve">isolate 2545</text>
      <text x="89.1012" font-size="8px" y="120.727" clip-path="url(#clipPath2)" font-family="sans-serif" stroke="none" xml:space="preserve">primary_data = Z</text>
      <text x="87.7262" font-size="8px" y="130.0395" clip-path="url(#clipPath2)" font-family="sans-serif" stroke="none" xml:space="preserve">production_all = p</text>
      <text x="-21.0786" font-size="8px" y="121.7155" clip-path="url(#clipPath2)" font-family="sans-serif" stroke="none" xml:space="preserve">apply MRIO</text>
      <text x="-28.1801" font-size="8px" y="131.028" clip-path="url(#clipPath2)" font-family="sans-serif" stroke="none" xml:space="preserve">(Kastner 2011)</text>
    </g>
    <g font-size="8px" stroke-linecap="butt" transform="matrix(1,0,0,1,736,365)" text-rendering="geometricPrecision" font-family="sans-serif" shape-rendering="geometricPrecision" stroke-miterlimit="1.45">
      <text x="-219.8385" xml:space="preserve" y="311.9915" clip-path="url(#clipPath2)" stroke="none">save</text>
    </g>
    <g font-size="8px" stroke-linecap="butt" transform="matrix(1,0,0,1,736,365)" text-rendering="geometricPrecision" font-family="sans-serif" shape-rendering="geometricPrecision" stroke-miterlimit="1.45">
      <text x="-243.9634" xml:space="preserve" y="4.0294" clip-path="url(#clipPath2)" stroke="none">load + merge</text>
    </g>
    <g font-size="8px" stroke-linecap="butt" transform="matrix(1,0,0,1,736,365)" text-rendering="geometricPrecision" font-family="sans-serif" shape-rendering="geometricPrecision" stroke-miterlimit="1.45">
      <text x="-141.4517" xml:space="preserve" y="-306.2544" clip-path="url(#clipPath2)" stroke="none">load</text>
    </g>
    <g font-size="8px" stroke-linecap="butt" transform="matrix(1,0,0,1,736,365)" text-rendering="geometricPrecision" font-family="sans-serif" shape-rendering="geometricPrecision" stroke-miterlimit="1.45">
      <text x="68.9702" xml:space="preserve" y="-306.2544" clip-path="url(#clipPath2)" stroke="none">load</text>
    </g>
    <g font-size="8px" stroke-linecap="butt" transform="matrix(1,0,0,1,736,365)" text-rendering="geometricPrecision" font-family="sans-serif" shape-rendering="geometricPrecision" stroke-miterlimit="1.45">
      <text x="-357.408" xml:space="preserve" y="-306.2544" clip-path="url(#clipPath2)" stroke="none">load</text>
    </g>
    <g font-size="8px" stroke-linecap="butt" transform="matrix(1,0,0,1,736,365)" text-rendering="geometricPrecision" font-family="sans-serif" shape-rendering="geometricPrecision" stroke-miterlimit="1.45">
      <text x="-597.2661" xml:space="preserve" y="-306.2544" clip-path="url(#clipPath2)" stroke="none">load</text>
    </g>
    <g font-size="8px" stroke-linecap="butt" transform="matrix(1,0,0,1,736,365)" text-rendering="geometricPrecision" font-family="sans-serif" shape-rendering="geometricPrecision" stroke-miterlimit="1.45">
      <text x="-577.7158" xml:space="preserve" y="180.4888" clip-path="url(#clipPath2)" stroke="none">load</text>
    </g>
    <g stroke-linecap="butt" font-size="8px" transform="matrix(1,0,0,1,736,365)" fill="white" text-rendering="geometricPrecision" font-family="sans-serif" shape-rendering="geometricPrecision" stroke="white" stroke-miterlimit="1.45">
      <text x="110.4983" xml:space="preserve" y="89.7582" clip-path="url(#clipPath2)" stroke="none">matrix inversion</text>
      <text x="118.9944" xml:space="preserve" y="99.0707" clip-path="url(#clipPath2)" stroke="none">compiled as</text>
      <text x="119.6858" xml:space="preserve" y="108.3832" clip-path="url(#clipPath2)" stroke="none">C/Assembly</text>
    </g>
    <g text-rendering="geometricPrecision" stroke-miterlimit="1.45" shape-rendering="geometricPrecision" transform="matrix(1,0,0,1,736,365)" stroke-linecap="butt">
      <path fill="none" d="M-148.4 -318.3709 L-148.4 -296.3416" clip-path="url(#clipPath2)"/>
      <path d="M-148.4 -288.3416 L-143.4 -300.3416 L-148.4 -297.3416 L-153.4 -300.3416 Z" clip-path="url(#clipPath2)" stroke="none"/>
      <path fill="none" d="M-148.4 -258.3416 L-148.4 -238.3416 L-34.729 -238.3416 L-34.729 -222.0697" clip-path="url(#clipPath2)"/>
      <path d="M-34.729 -214.0697 L-29.729 -226.0697 L-34.729 -223.0697 L-39.729 -226.0697 Z" clip-path="url(#clipPath2)" stroke="none"/>
      <path fill="none" d="M-148.4 -258.3416 L-148.4 -238.3416 L160.0352 -238.3416 L160.0352 -222.0939" clip-path="url(#clipPath2)"/>
      <path d="M160.0352 -214.0939 L165.0352 -226.0939 L160.0352 -223.0939 L155.0352 -226.0939 Z" clip-path="url(#clipPath2)" stroke="none"/>
      <path fill="none" d="M62.2 -260.0832 L62.2 -246.5114 L-9.7 -246.5114 L-9.7 -222.0832" clip-path="url(#clipPath2)"/>
      <path d="M-9.7 -214.0832 L-4.7 -226.0832 L-9.7 -223.0832 L-14.7 -226.0832 Z" clip-path="url(#clipPath2)" stroke="none"/>
      <path fill="none" d="M62.2 -260.0832 L62.2 -246.5114 L134.1 -246.5114 L134.1 -222.0832" clip-path="url(#clipPath2)"/>
      <path d="M134.1 -214.0832 L139.1 -226.0832 L134.1 -223.0832 L129.1 -226.0832 Z" clip-path="url(#clipPath2)" stroke="none"/>
      <path fill="none" d="M62.2 -318.3503 L62.2 -298.0832" clip-path="url(#clipPath2)"/>
      <path d="M62.2 -290.0832 L67.2 -302.0832 L62.2 -299.0832 L57.2 -302.0832 Z" clip-path="url(#clipPath2)" stroke="none"/>
      <path fill="none" d="M-9.7 -184.0832 L-9.7 -169.5416 L62.2 -169.5416 L62.2 -162.0832" clip-path="url(#clipPath2)"/>
      <path d="M62.2 -154.0832 L67.2 -166.0832 L62.2 -163.0832 L57.2 -166.0832 Z" clip-path="url(#clipPath2)" stroke="none"/>
      <path fill="none" d="M134.1 -184.0832 L134.1 -169.5416 L62.2 -169.5416 L62.2 -162.0832" clip-path="url(#clipPath2)"/>
      <path d="M62.2 -154.0832 L67.2 -166.0832 L62.2 -163.0832 L57.2 -166.0832 Z" clip-path="url(#clipPath2)" stroke="none"/>
      <path fill="none" d="M-362.6 -318.3709 L-362.6 -296.3416" clip-path="url(#clipPath2)"/>
      <path d="M-362.6 -288.3416 L-357.6 -300.3416 L-362.6 -297.3416 L-367.6 -300.3416 Z" clip-path="url(#clipPath2)" stroke="none"/>
      <path fill="none" d="M-602.8 -318.3709 L-602.8 -296.3416" clip-path="url(#clipPath2)"/>
      <path d="M-602.8 -288.3416 L-597.8 -300.3416 L-602.8 -297.3416 L-607.8 -300.3416 Z" clip-path="url(#clipPath2)" stroke="none"/>
      <path fill="none" d="M-482.7 -124.0832 L-482.7 -107.9964 L62.2 -107.9964 L62.2 19.7008" clip-path="url(#clipPath2)"/>
      <path d="M62.2 27.7008 L67.2 15.7008 L62.2 18.7008 L57.2 15.7008 Z" clip-path="url(#clipPath2)" stroke="none"/>
      <path fill="none" d="M62.2 -124.0832 L62.2 19.7008" clip-path="url(#clipPath2)"/>
      <path d="M62.2 27.7008 L67.2 15.7008 L62.2 18.7008 L57.2 15.7008 Z" clip-path="url(#clipPath2)" stroke="none"/>
      <path fill="none" d="M-397.9 -6.7214 L-397.9 6.9606 L-251.4999 6.9606 L-251.4999 19.7008" clip-path="url(#clipPath2)"/>
      <path d="M-251.4999 27.7008 L-246.4999 15.7008 L-251.4999 18.7008 L-256.4999 15.7008 Z" clip-path="url(#clipPath2)" stroke="none"/>
      <path fill="none" d="M-94.5 -6.7214 L-94.5 6.9606 L-251.4999 6.9606 L-251.4999 19.7008" clip-path="url(#clipPath2)"/>
      <path d="M-251.4999 27.7008 L-246.4999 15.7008 L-251.4999 18.7008 L-256.4999 15.7008 Z" clip-path="url(#clipPath2)" stroke="none"/>
      <path fill="none" d="M-251.4999 -57.0724 L-251.4999 19.7446" clip-path="url(#clipPath2)"/>
      <path d="M-251.4999 27.7446 L-246.4999 15.7446 L-251.4999 18.7446 L-256.4999 15.7446 Z" clip-path="url(#clipPath2)" stroke="none"/>
      <path fill="none" d="M-100.0339 57.7129 L-100.0339 151.1599 L-59.8908 151.1599" clip-path="url(#clipPath2)"/>
      <path d="M-51.8908 151.1599 L-63.8908 146.1599 L-60.8908 151.1599 L-63.8908 156.1599 Z" clip-path="url(#clipPath2)" stroke="none"/>
      <path fill="none" d="M62.2 57.7008 L62.2 73.336" clip-path="url(#clipPath2)"/>
      <path d="M62.2 81.336 L67.2 69.336 L62.2 72.336 L57.2 69.336 Z" clip-path="url(#clipPath2)" stroke="none"/>
      <path fill="none" d="M-89.9142 57.7158 L-89.9142 68.666 L62.2 68.666 L62.2 73.2842" clip-path="url(#clipPath2)"/>
      <path d="M62.2 81.2842 L67.2 69.2842 L62.2 72.2842 L57.2 69.2842 Z" clip-path="url(#clipPath2)" stroke="none"/>
      <path fill="none" d="M62.2 111.3233 L62.2 127.9466" clip-path="url(#clipPath2)"/>
      <path d="M62.2 135.9466 L67.2 123.9466 L62.2 126.9466 L57.2 123.9466 Z" clip-path="url(#clipPath2)" stroke="none"/>
      <path fill="none" d="M-583.8 168.4131 L-583.8 183.4016" clip-path="url(#clipPath2)"/>
      <path d="M-583.8 191.4016 L-578.8 179.4016 L-583.8 182.4016 L-588.8 179.4016 Z" clip-path="url(#clipPath2)" stroke="none"/>
      <path fill="none" d="M-447.1 206.4016 L-327.0575 206.4016" clip-path="url(#clipPath2)"/>
      <path d="M-319.0575 206.4016 L-331.0575 201.4016 L-328.0575 206.4016 L-331.0575 211.4016 Z" clip-path="url(#clipPath2)" stroke="none"/>
      <path fill="none" d="M-251.4999 164.9016 L-251.4999 183.4016" clip-path="url(#clipPath2)"/>
      <path d="M-251.4999 191.4016 L-246.4999 179.4016 L-251.4999 182.4016 L-256.4999 179.4016 Z" clip-path="url(#clipPath2)" stroke="none"/>
      <path fill="none" d="M-565.1998 -124.0357 L-565.1998 116.2504 L-355.6342 116.2504 L-355.6342 175.3827 L-290.4999 175.3827 L-290.4999 183.3891" clip-path="url(#clipPath2)"/>
      <path d="M-290.4999 191.3891 L-285.4999 179.3891 L-290.4999 182.3891 L-295.4999 179.3891 Z" clip-path="url(#clipPath2)" stroke="none"/>
      <path fill="none" d="M119.2712 165.9538 L119.2712 259.1924 L62.2 259.1924 L62.2 292.4832" clip-path="url(#clipPath2)"/>
      <path d="M62.2 300.4832 L67.2 288.4832 L62.2 291.4832 L57.2 288.4832 Z" clip-path="url(#clipPath2)" stroke="none"/>
      <path fill="none" d="M-51.9 315.4832 L-376.0165 315.4832" clip-path="url(#clipPath2)"/>
      <path d="M-384.0165 315.4832 L-372.0165 320.4832 L-375.0165 315.4832 L-372.0165 310.4832 Z" clip-path="url(#clipPath2)" stroke="none"/>
      <path fill="none" d="M-602.8 -258.3416 L-602.8 -246.4552 L-482.7 -246.4552 L-482.7 -222.1051" clip-path="url(#clipPath2)"/>
      <path d="M-482.7 -214.1051 L-477.7 -226.1051 L-482.7 -223.1051 L-487.7 -226.1051 Z" clip-path="url(#clipPath2)" stroke="none"/>
      <path fill="none" d="M-362.6 -258.3416 L-362.6 -246.4552 L-482.7 -246.4552 L-482.7 -222.1183" clip-path="url(#clipPath2)"/>
      <path d="M-482.7 -214.1183 L-477.7 -226.1183 L-482.7 -223.1183 L-487.7 -226.1183 Z" clip-path="url(#clipPath2)" stroke="none"/>
      <path fill="none" d="M-482.7 -184.0539 L-482.7 -162.0832" clip-path="url(#clipPath2)"/>
      <path d="M-482.7 -154.0832 L-477.7 -166.0832 L-482.7 -163.0832 L-487.7 -166.0832 Z" clip-path="url(#clipPath2)" stroke="none"/>
      <path fill="none" d="M-116.3848 57.7003 L-116.3848 236.1924" clip-path="url(#clipPath2)"/>
      <path d="M-116.3848 244.1924 L-111.3848 232.1924 L-116.3848 235.1924 L-121.3848 232.1924 Z" clip-path="url(#clipPath2)" stroke="none"/>
      <path fill="none" d="M-183.9423 206.4016 L-141.3448 206.4016 L-141.3448 236.1711" clip-path="url(#clipPath2)"/>
      <path d="M-141.3448 244.1711 L-136.3448 232.1711 L-141.3448 235.1711 L-146.3448 232.1711 Z" clip-path="url(#clipPath2)" stroke="none"/>
      <path fill="none" d="M-48.8272 259.1924 L62.2 259.1924 L62.2 292.514" clip-path="url(#clipPath2)"/>
      <path d="M62.2 300.514 L67.2 288.514 L62.2 291.514 L57.2 288.514 Z" clip-path="url(#clipPath2)" stroke="none"/>
      <path fill="none" d="M-281.2206 57.7275 L-281.2206 73.2821" clip-path="url(#clipPath2)"/>
      <path d="M-281.2206 81.2821 L-276.2206 69.2821 L-281.2206 72.2821 L-286.2206 69.2821 Z" clip-path="url(#clipPath2)" stroke="none"/>
      <path fill="none" d="M-251.4999 111.3012 L-251.4999 126.9016" clip-path="url(#clipPath2)"/>
      <path d="M-251.4999 134.9016 L-246.4999 122.9016 L-251.4999 125.9016 L-256.4999 122.9016 Z" clip-path="url(#clipPath2)" stroke="none"/>
      <path fill="none" d="M-219.4498 81.2683 L-219.4498 65.6788" clip-path="url(#clipPath2)"/>
      <path d="M-219.4498 57.6788 L-224.4498 69.6788 L-219.4498 66.6788 L-214.4498 69.6788 Z" clip-path="url(#clipPath2)" stroke="none"/>
      <path fill="none" d="M24.3128 165.9389 L24.3128 181.3594" clip-path="url(#clipPath2)"/>
      <path d="M24.3128 189.3594 L29.3128 177.3594 L24.3128 180.3594 L19.3128 177.3594 Z" clip-path="url(#clipPath2)" stroke="none"/>
      <path fill="none" d="M-48.8421 206.4016 L-93.9848 206.4016 L-93.9848 236.1871" clip-path="url(#clipPath2)"/>
      <path d="M-93.9848 244.1871 L-88.9848 232.1871 L-93.9848 235.1871 L-98.9848 232.1871 Z" clip-path="url(#clipPath2)" stroke="none"/>
    </g>
  </g>
</svg>
